# xmcd
#
# Track frame offsets: 
#        150
#        20802
#        55502
#        75455
#        87482
#        103032
#        121995
#        148860
#        196387
#        221940
#
# Disc length: 3082 seconds
#
# Revision: 0
# Processed by: cddbd v1.5.2PL0 Copyright (c) Steve Scherf et al.
# Submitted via: ExactAudioCopyFreeDBPlugin 1.0
#
DISCID=8f0c080a
DTITLE=Philipp Fankhauser - Blues for the Lady
DYEAR=1989
DGENRE=Blues
TTITLE0=Everything I Do Is Wrong
TTITLE1=Blues On Monday Morning
TTITLE2=Evil Gal Blues
TTITLE3=Chilly Waters
TTITLE4=Mississippi Steamboat
TTITLE5=Hey Bartender
TTITLE6=Ain't Nobody's Business
TTITLE7=Trouble Trouble Trouble
TTITLE8=Tribute To Memphis Slim - Everyday I Have The Blues
TTITLE9=Same Ol' Steamboat
EXTD=
EXTT0=
EXTT1=
EXTT2=
EXTT3=
EXTT4=
EXTT5=
EXTT6=
EXTT7=
EXTT8=
EXTT9=
PLAYORDER=
